<?xml version="1.0" encoding="UTF-8" ?>
<!DOCTYPE svg PUBLIC "-//W3C//DTD SVG 1.1//EN" "http://www.w3.org/Graphics/SVG/1.1/DTD/svg11.dtd">
<svg width="500pt" height="135pt" viewBox="0 0 500 135" version="1.1" xmlns="http://www.w3.org/2000/svg">
<g id="#ffffffff">
<path fill="#ffffff" opacity="1.00" d=" M 226.86 126.31 C 227.39 125.18 228.41 124.63 229.58 124.34 C 229.67 124.87 229.84 125.91 229.93 126.44 C 229.16 126.40 227.63 126.34 226.86 126.31 Z" />
<path fill="#ffffff" opacity="1.00" d=" M 334.40 130.72 C 333.73 127.74 335.52 124.96 338.70 125.04 C 338.34 126.83 338.74 129.03 337.33 130.43 C 336.35 130.56 335.38 130.66 334.40 130.72 Z" />
</g>
<g id="#1c1817ff">
<path fill="#1c1817" opacity="1.00" d=" M 49.58 0.00 L 50.78 0.00 C 54.59 3.56 60.22 2.41 64.97 2.73 C 74.69 3.11 84.31 1.71 93.99 1.14 C 102.61 0.02 111.37 -0.20 120.04 0.43 C 127.69 1.23 136.16 3.51 140.81 10.16 C 145.00 15.96 144.76 23.46 144.31 30.25 C 142.33 26.76 140.73 22.98 137.99 19.98 C 133.25 14.66 126.25 12.00 119.34 11.02 C 107.25 9.28 95.12 11.60 83.01 11.68 C 74.68 11.74 65.86 12.54 58.15 8.69 C 54.70 7.24 52.35 4.19 49.24 2.21 C 49.32 1.66 49.50 0.55 49.58 0.00 Z" />
<path fill="#1c1817" opacity="1.00" d=" M 188.96 18.01 C 192.09 17.42 195.03 16.22 198.03 15.20 C 197.74 15.61 197.17 16.42 196.88 16.83 C 188.91 24.58 178.07 28.90 167.06 29.69 C 160.80 30.49 154.48 30.39 148.19 30.55 C 148.34 27.12 148.36 23.69 148.23 20.26 C 152.83 20.23 157.43 20.24 162.03 20.14 C 171.01 19.49 180.14 20.19 188.96 18.01 Z" />
<path fill="#1c1817" opacity="1.00" d=" M 200.76 16.35 C 228.08 16.20 255.41 16.37 282.73 16.27 C 282.56 18.16 282.37 20.04 282.09 21.92 C 281.51 24.18 281.20 26.49 280.73 28.77 C 280.58 30.02 280.44 31.27 280.30 32.52 C 271.49 32.60 262.67 32.41 253.86 32.62 C 253.51 36.74 252.77 40.81 251.81 44.83 C 250.91 51.88 249.22 58.81 248.26 65.87 C 247.13 70.72 246.92 75.80 245.21 80.51 L 246.26 80.44 C 244.97 82.02 244.95 84.14 244.61 86.05 C 244.02 91.12 242.49 96.03 242.16 101.13 C 241.71 102.75 241.37 104.38 241.03 106.02 C 240.62 108.14 240.36 110.28 240.12 112.43 C 231.77 112.52 223.42 112.46 215.07 112.47 C 217.05 98.94 219.89 85.54 222.08 72.04 C 224.37 58.88 226.92 45.75 228.90 32.53 C 216.26 32.48 203.61 32.63 190.96 32.46 C 196.40 28.86 200.53 23.03 200.76 16.35 Z" />
<path fill="#1c1817" opacity="1.00" d=" M 286.76 16.42 C 302.15 16.33 317.59 15.88 332.96 16.88 C 339.21 17.48 345.31 19.18 350.85 22.18 C 356.66 26.20 361.37 32.66 360.70 40.05 C 361.38 49.30 354.03 56.85 345.89 59.92 C 351.36 62.95 357.53 65.45 361.21 70.83 C 366.61 77.60 366.95 87.40 362.94 94.93 C 359.70 100.32 354.71 104.43 349.15 107.27 C 345.24 109.00 341.12 110.11 336.99 111.16 C 331.00 111.50 325.06 112.58 319.05 112.45 C 302.71 112.49 286.38 112.48 270.05 112.45 C 270.53 108.91 271.37 105.43 271.81 101.89 C 272.61 97.94 273.51 94.01 273.83 89.99 L 274.23 89.40 C 275.20 81.93 276.84 74.56 277.99 67.12 C 280.08 55.48 282.02 43.81 284.29 32.20 C 284.81 26.89 286.29 21.73 286.76 16.42 M 309.15 31.12 C 308.38 33.33 308.49 35.74 307.85 37.98 C 307.60 39.70 307.41 41.43 307.21 43.15 C 306.30 46.79 305.57 50.49 305.34 54.24 C 310.52 54.05 315.73 54.56 320.88 53.87 C 323.24 53.73 325.61 53.53 327.93 53.03 C 334.11 51.99 338.49 46.06 337.41 39.83 C 336.28 36.72 333.93 34.35 331.16 32.64 C 330.41 32.48 329.67 32.32 328.93 32.15 C 326.94 31.49 324.84 31.32 322.77 31.09 C 318.27 30.69 313.60 30.32 309.15 31.12 M 302.54 68.54 C 300.99 76.67 299.65 84.84 298.10 92.98 C 297.79 94.44 297.52 95.92 297.30 97.40 C 305.26 97.33 313.23 97.56 321.20 97.29 C 327.59 96.60 334.90 95.34 338.97 89.80 C 343.49 83.85 341.16 73.86 333.94 71.25 C 323.92 67.46 313.01 68.84 302.54 68.54 Z" />
<path fill="#1c1817" opacity="1.00" d=" M 383.75 16.23 C 391.57 16.36 399.40 16.28 407.22 16.27 C 410.66 25.09 413.71 34.06 417.22 42.85 C 419.85 50.83 423.33 58.51 425.72 66.57 C 426.05 66.49 426.72 66.32 427.05 66.24 C 436.49 49.37 447.40 33.32 456.96 16.51 C 465.67 16.14 474.42 16.15 483.13 16.52 C 483.68 23.14 484.76 29.70 485.77 36.27 C 486.29 38.86 486.49 41.49 486.77 44.11 C 487.43 46.41 487.58 48.80 487.81 51.17 C 489.49 62.79 491.56 74.39 492.80 86.07 C 494.52 94.80 495.44 103.68 496.74 112.48 C 488.78 112.39 480.81 112.63 472.86 112.34 C 472.13 104.70 470.40 97.20 469.32 89.60 L 468.91 89.95 C 468.78 87.59 468.61 85.20 467.92 82.93 C 467.58 80.63 467.42 78.31 466.89 76.04 C 465.55 68.67 464.29 61.29 463.15 53.89 C 460.03 57.33 457.78 61.44 454.99 65.14 C 444.43 80.59 433.40 95.72 423.06 111.31 C 422.71 111.47 422.01 111.80 421.66 111.97 C 415.53 97.28 409.11 82.73 402.83 68.11 C 400.84 63.38 398.69 58.71 396.91 53.89 C 394.78 59.10 393.58 64.63 391.80 69.96 C 390.43 74.25 389.37 78.63 387.81 82.85 C 387.57 83.89 387.34 84.94 387.11 85.98 C 384.77 92.54 383.09 99.30 381.02 105.94 C 380.30 108.07 379.66 110.23 379.14 112.41 C 370.89 112.52 362.64 112.47 354.39 112.45 C 355.08 110.25 355.80 108.06 356.72 105.95 C 362.43 101.88 366.57 95.86 368.29 89.06 C 368.67 85.71 368.66 82.33 368.29 78.98 C 367.59 77.01 366.51 75.08 366.46 72.96 C 366.79 70.94 367.57 69.04 368.23 67.11 C 373.00 50.70 378.13 34.39 382.89 17.98 C 383.11 17.54 383.53 16.67 383.75 16.23 Z" />
<path fill="#1c1817" opacity="1.00" d=" M 98.74 21.18 C 105.20 20.19 111.69 21.14 118.15 21.65 C 124.81 22.71 131.94 25.44 135.63 31.45 C 139.44 37.24 139.19 44.59 138.36 51.19 C 136.12 44.58 131.84 38.48 125.47 35.31 C 122.01 33.34 118.06 32.54 114.22 31.65 C 106.10 30.98 97.93 31.23 89.80 31.66 C 85.27 32.60 80.63 32.30 76.04 32.52 C 71.03 32.55 65.97 32.84 61.01 31.98 C 53.95 30.90 47.24 27.32 43.27 21.24 C 46.14 21.85 48.98 22.59 51.82 23.31 C 67.53 24.67 83.07 21.43 98.74 21.18 Z" />
<path fill="#1c1817" opacity="1.00" d=" M 182.98 37.83 C 184.34 37.64 187.06 37.25 188.42 37.06 C 183.65 41.23 178.47 45.07 172.46 47.23 C 162.87 50.73 152.50 51.12 142.41 51.41 C 142.57 48.00 142.61 44.58 142.46 41.16 C 145.32 41.16 148.18 41.25 151.04 41.15 C 161.67 40.04 172.68 41.32 182.98 37.83 Z" />
<path fill="#1c1817" opacity="1.00" d=" M 37.89 42.31 C 54.12 46.58 70.78 42.89 87.18 42.22 C 94.94 41.28 102.95 41.13 110.70 42.18 C 112.19 42.38 113.68 42.55 115.17 42.73 C 120.61 44.22 126.33 46.46 129.57 51.37 C 133.67 56.73 133.76 63.81 133.44 70.24 C 132.93 69.76 131.92 68.80 131.41 68.32 C 127.36 58.88 117.47 52.98 107.42 52.36 C 102.58 51.75 97.69 51.34 92.82 51.88 C 86.59 52.78 80.24 52.12 74.02 53.16 C 68.72 53.42 63.31 53.84 58.05 52.86 C 50.20 52.54 42.48 48.79 37.89 42.31 Z" />
<path fill="#1c1817" opacity="1.00" d=" M 90.49 55.88 C 90.78 56.24 91.37 56.95 91.67 57.31 C 93.77 58.97 96.25 59.95 98.92 60.14 C 102.95 59.50 107.12 58.84 111.15 59.73 C 117.21 62.03 119.47 68.63 122.35 73.85 C 122.43 74.41 122.60 75.52 122.69 76.08 C 115.33 71.47 106.15 76.95 98.56 73.31 C 92.49 69.85 91.04 62.27 90.49 55.88 Z" />
<path fill="#1c1817" opacity="1.00" d=" M 178.58 56.36 C 178.83 56.43 179.34 56.56 179.60 56.62 C 179.45 56.95 179.15 57.60 179.00 57.93 C 174.77 61.56 170.32 65.01 165.18 67.27 C 157.46 70.30 149.18 71.61 140.92 71.79 C 140.02 71.96 138.23 72.32 137.33 72.49 C 137.25 68.84 137.33 65.19 137.30 61.55 C 150.63 61.49 164.36 62.07 177.15 57.70 L 178.75 57.47 L 178.58 56.36 Z" />
<path fill="#1c1817" opacity="1.00" d=" M 12.05 62.69 C 12.55 62.68 13.54 62.66 14.04 62.65 C 18.34 64.92 23.31 64.72 28.02 64.88 C 34.35 65.04 40.68 64.62 47.01 64.45 C 50.98 63.32 55.16 63.87 59.21 63.27 C 63.95 62.26 68.84 62.65 73.65 62.36 C 73.34 66.02 73.36 69.70 73.54 73.38 C 61.70 73.64 49.92 75.30 38.06 74.74 C 28.76 74.79 18.81 71.59 13.11 63.84 C 12.85 63.55 12.32 62.98 12.05 62.69 Z" />
<path fill="#1c1817" opacity="1.00" d=" M 76.56 63.26 C 76.93 63.42 77.68 63.74 78.05 63.90 C 80.64 72.98 89.07 79.09 97.96 81.18 C 105.90 82.97 114.07 82.57 122.15 82.24 C 127.07 81.21 132.14 81.67 137.10 81.00 C 143.42 80.24 149.78 80.83 156.05 81.77 C 162.30 83.14 168.47 86.30 171.92 91.91 C 160.06 88.61 147.72 89.82 135.66 91.03 C 123.73 91.93 111.78 93.34 99.80 92.26 C 92.63 91.09 84.56 89.13 80.33 82.64 C 76.28 77.04 76.38 69.85 76.56 63.26 Z" />
<path fill="#1c1817" opacity="1.00" d=" M 6.01 83.62 C 6.52 83.66 7.54 83.74 8.05 83.78 C 15.04 86.36 22.71 86.42 30.08 86.21 C 38.68 85.10 47.41 85.16 56.01 83.91 C 60.06 83.44 64.15 83.43 68.22 83.47 C 68.04 87.10 68.13 90.74 68.43 94.37 C 57.58 94.58 46.77 95.75 35.93 96.09 C 29.11 95.62 22.13 95.33 15.84 92.32 C 11.92 90.22 8.72 87.09 6.01 83.62 Z" />
<path fill="#1c1817" opacity="1.00" d=" M 71.09 89.03 C 71.10 86.97 71.39 84.94 71.84 82.94 C 74.11 91.73 81.29 98.52 89.85 101.17 C 91.24 101.45 92.64 101.74 94.00 102.19 C 100.61 102.90 107.28 103.92 113.91 102.78 C 125.23 102.62 136.61 100.24 147.89 102.12 C 155.41 102.76 162.34 106.67 166.83 112.71 C 163.84 112.23 160.91 111.40 157.89 111.07 C 151.02 110.15 144.02 110.52 137.14 111.25 C 133.15 111.55 129.11 111.34 125.18 112.23 C 121.16 112.60 117.06 112.28 113.10 113.16 C 105.35 113.78 97.57 113.46 89.90 112.21 C 84.11 110.82 78.03 108.40 74.68 103.17 C 71.75 99.07 71.17 93.93 71.09 89.03 Z" />
<path fill="#1c1817" opacity="1.00" d=" M 0.00 103.67 C 6.97 106.33 14.55 106.58 21.93 106.41 C 35.43 105.96 48.86 104.20 62.34 103.54 C 62.25 107.21 62.29 110.93 63.43 114.46 C 50.29 114.86 37.21 116.87 24.05 116.18 C 19.42 115.44 14.66 114.87 10.41 112.76 C 6.13 110.86 2.78 107.42 0.00 103.74 L 0.00 103.67 Z" />
<path fill="#1c1817" opacity="1.00" d=" M 65.78 103.84 C 66.11 104.54 66.45 105.23 66.78 105.93 C 68.50 108.92 69.96 112.12 72.47 114.56 C 76.76 119.31 82.97 121.86 89.18 122.89 C 108.70 126.13 128.63 119.31 148.04 123.86 C 153.27 125.63 157.95 128.89 161.09 133.48 C 160.56 133.44 159.51 133.35 158.98 133.31 C 157.38 132.70 155.71 132.29 154.06 131.84 C 142.30 130.45 130.53 132.13 118.79 132.78 C 113.94 133.88 108.91 133.49 103.97 133.74 C 96.02 133.66 87.80 134.48 80.16 131.72 C 74.34 129.94 69.33 125.70 67.01 120.01 C 65.23 114.81 65.37 109.25 65.78 103.84 Z" />
<path fill="#1c1817" opacity="1.00" d=" M 259.87 117.79 C 260.78 117.71 261.70 117.63 262.62 117.56 C 262.54 119.71 262.38 121.86 262.08 124.00 C 261.32 126.79 261.27 129.69 261.18 132.56 C 259.95 132.61 258.73 132.64 257.51 132.66 C 258.68 127.77 259.40 122.79 259.87 117.79 Z" />
<path fill="#1c1817" opacity="1.00" d=" M 394.32 118.01 C 395.34 117.67 396.42 117.63 397.49 117.47 C 397.66 122.53 398.29 127.56 398.46 132.62 C 397.40 132.70 396.35 132.79 395.31 132.87 C 395.22 130.09 395.32 127.30 395.05 124.54 C 394.77 124.39 394.22 124.10 393.94 123.95 C 392.52 127.09 390.85 130.11 389.17 133.12 C 388.82 133.18 388.12 133.31 387.77 133.38 C 386.76 129.72 385.96 126.01 385.08 122.32 C 384.29 124.54 383.61 126.80 382.80 129.02 C 382.56 130.19 382.34 131.36 382.13 132.54 C 381.17 132.60 379.26 132.70 378.30 132.76 C 380.38 127.90 381.29 122.56 383.75 117.89 C 388.97 116.45 387.44 124.16 388.96 127.17 C 391.21 124.40 392.39 120.98 394.32 118.01 Z" />
<path fill="#1c1817" opacity="1.00" d=" M 485.09 120.95 C 485.53 119.28 486.57 117.90 487.74 116.67 C 487.03 123.02 484.26 128.91 482.45 135.00 L 480.90 135.00 C 481.98 130.23 483.65 125.61 485.09 120.95 Z" />
<path fill="#1c1817" opacity="1.00" d=" M 494.09 117.59 C 495.15 117.63 496.22 117.67 497.30 117.71 C 498.27 122.18 498.95 126.72 500.00 131.18 L 500.00 132.81 C 498.87 132.76 497.74 132.72 496.62 132.68 C 496.57 131.93 496.45 130.41 496.40 129.66 C 494.91 129.66 493.44 129.67 491.97 129.69 C 490.92 131.76 489.40 133.31 486.87 133.17 C 488.80 127.77 491.48 122.68 494.09 117.59 M 492.32 127.33 C 493.49 127.38 494.66 127.42 495.85 127.47 C 495.62 125.62 495.40 123.78 495.17 121.93 C 494.27 123.76 493.32 125.56 492.32 127.33 Z" />
<path fill="#1c1817" opacity="1.00" d=" M 213.77 117.70 C 218.03 117.69 222.29 117.72 226.54 117.65 C 226.54 118.56 226.54 119.47 226.54 120.38 C 224.91 120.41 223.27 120.44 221.65 120.48 C 221.33 124.55 220.40 128.54 220.07 132.61 C 219.15 132.65 217.32 132.74 216.41 132.78 C 217.55 128.75 217.45 124.51 218.54 120.47 C 216.88 120.44 215.21 120.42 213.55 120.40 C 213.61 119.73 213.72 118.38 213.77 117.70 Z" />
<path fill="#1c1817" opacity="1.00" d=" M 253.71 120.54 C 254.21 119.23 255.08 118.30 256.51 118.25 C 256.72 118.65 257.14 119.44 257.35 119.83 C 256.15 123.81 256.20 128.14 255.42 132.25 C 255.06 132.60 254.35 133.30 253.99 133.65 C 253.62 133.33 252.89 132.68 252.52 132.36 C 252.61 131.50 252.78 129.78 252.86 128.92 C 253.47 126.10 253.50 122.97 255.55 120.71 L 253.71 120.54 Z" />
<path fill="#1c1817" opacity="1.00" d=" M 357.48 122.51 C 357.69 120.15 357.21 116.91 360.73 117.39 C 360.42 122.73 360.01 128.19 358.34 133.31 C 356.80 133.31 355.26 133.33 353.73 133.38 C 351.90 132.41 349.55 131.22 349.60 128.80 C 349.07 125.88 351.55 123.91 353.73 122.54 C 354.98 122.54 356.23 122.53 357.48 122.51 M 352.45 127.45 C 352.50 127.87 352.59 128.73 352.63 129.16 C 352.97 129.50 353.65 130.20 353.99 130.54 C 354.57 130.57 355.75 130.64 356.33 130.67 C 356.47 128.77 356.59 126.86 356.68 124.96 C 354.96 125.23 353.56 126.14 352.45 127.45 Z" />
<path fill="#1c1817" opacity="1.00" d=" M 471.30 121.99 C 471.07 119.80 473.36 118.80 474.64 117.45 C 476.72 117.55 478.80 117.82 480.74 118.63 C 480.59 119.56 480.45 120.49 480.32 121.42 C 478.49 120.53 476.48 120.19 474.46 120.49 C 474.71 124.01 479.05 124.91 480.51 127.89 C 480.00 130.43 478.50 132.47 476.16 133.59 C 474.17 133.27 472.23 132.77 470.30 132.26 C 470.25 131.26 470.20 130.27 470.16 129.29 C 472.21 129.93 474.29 130.49 476.46 130.55 C 476.51 129.66 476.56 128.76 476.62 127.87 C 474.61 126.27 471.24 125.01 471.30 121.99 Z" />
<path fill="#1c1817" opacity="1.00" d=" M 269.54 118.11 C 272.53 118.03 275.53 118.08 278.48 118.64 C 278.89 120.78 279.22 123.14 277.56 124.86 C 280.54 126.52 280.48 131.13 277.21 132.45 C 273.95 133.06 270.62 132.78 267.33 132.77 C 267.47 131.14 267.64 129.51 267.82 127.89 C 268.58 124.66 268.75 121.33 269.54 118.11 M 272.59 120.13 C 272.26 121.26 271.92 122.38 271.57 123.49 C 272.97 123.56 274.36 123.59 275.77 123.61 C 275.99 122.64 276.21 121.67 276.42 120.71 C 275.14 120.51 273.87 120.31 272.59 120.13 M 271.42 126.22 C 271.33 127.70 271.28 129.20 271.23 130.69 C 272.65 130.54 274.09 130.51 275.50 130.21 C 277.10 129.68 276.26 127.74 276.50 126.51 C 274.80 126.38 273.11 126.29 271.42 126.22 Z" />
<path fill="#1c1817" opacity="1.00" d=" M 247.01 120.64 C 247.75 120.55 248.49 120.48 249.24 120.40 C 249.36 121.92 250.20 122.79 251.75 122.99 C 251.76 124.86 250.35 125.41 248.77 125.66 C 248.69 127.13 248.62 128.60 248.56 130.07 C 249.26 130.30 250.68 130.74 251.39 130.97 C 251.06 134.90 244.80 133.53 245.40 130.02 C 245.17 128.07 246.91 124.73 243.80 124.36 C 242.55 125.45 241.48 126.73 240.40 127.99 C 241.40 129.36 242.58 130.69 242.76 132.47 C 243.07 132.63 243.70 132.94 244.01 133.10 C 242.95 133.18 241.90 133.25 240.85 133.33 C 239.96 132.24 239.06 131.16 238.16 130.08 C 237.13 132.37 235.13 133.53 232.57 132.68 C 233.88 131.02 235.58 129.63 236.68 127.81 C 236.36 125.84 234.87 124.29 234.11 122.49 C 236.68 121.84 238.06 123.62 239.07 125.65 C 239.92 124.61 240.79 123.58 241.68 122.56 C 243.63 122.32 246.87 123.69 247.01 120.64 Z" />
<path fill="#1c1817" opacity="1.00" d=" M 293.74 122.57 C 296.36 122.63 298.98 122.62 301.60 122.57 C 301.55 122.98 301.44 123.81 301.39 124.22 C 299.72 126.12 298.15 128.12 296.93 130.34 C 298.64 130.83 302.03 129.35 301.52 132.66 C 298.29 132.88 295.06 132.83 291.84 132.73 C 293.25 130.06 295.20 127.74 297.03 125.36 C 296.19 125.35 294.51 125.34 293.67 125.33 C 293.35 125.00 292.70 124.35 292.37 124.03 C 292.72 123.67 293.40 122.94 293.74 122.57 Z" />
<path fill="#1c1817" opacity="1.00" d=" M 315.26 122.53 C 317.41 122.76 319.58 122.73 321.74 122.52 C 321.59 123.55 321.45 124.59 321.30 125.62 C 320.13 125.65 318.96 125.69 317.79 125.74 C 317.39 128.05 317.01 130.36 316.37 132.62 C 315.68 132.70 314.29 132.87 313.60 132.96 C 314.18 129.49 314.45 125.96 315.26 122.53 Z" />
<path fill="#1c1817" opacity="1.00" d=" M 435.33 122.66 C 438.16 122.51 441.01 122.63 443.86 122.65 C 442.21 125.28 440.35 127.78 438.62 130.36 C 439.95 130.40 441.30 130.43 442.64 130.46 C 442.66 131.06 442.69 132.24 442.70 132.84 C 439.75 133.31 436.76 133.28 433.79 133.24 C 434.56 130.21 436.95 128.03 438.43 125.37 C 437.40 125.33 435.35 125.25 434.33 125.21 C 434.58 124.57 435.08 123.30 435.33 122.66 Z" />
<path fill="#1c1817" opacity="1.00" d=" M 223.60 124.95 C 225.49 123.36 227.62 122.14 230.18 122.33 C 230.69 122.74 231.71 123.56 232.21 123.97 C 232.62 125.02 233.03 126.07 233.46 127.12 C 233.12 127.42 232.45 128.02 232.12 128.32 C 230.05 128.32 227.98 128.35 225.92 128.43 C 226.34 131.78 230.17 130.26 232.26 130.23 L 232.58 132.35 C 230.72 132.78 228.86 133.22 226.97 133.52 C 225.82 132.70 224.67 131.89 223.51 131.10 C 223.37 129.05 223.41 126.99 223.60 124.95 M 226.86 126.31 C 227.63 126.34 229.16 126.40 229.93 126.44 C 229.84 125.91 229.67 124.87 229.58 124.34 C 228.41 124.63 227.39 125.18 226.86 126.31 Z" />
<path fill="#1c1817" opacity="1.00" d=" M 282.77 132.23 C 280.12 129.14 281.19 124.36 284.76 122.50 C 285.59 122.49 287.27 122.46 288.11 122.45 C 288.67 122.80 289.80 123.50 290.36 123.85 C 290.95 125.32 291.74 126.88 290.74 128.37 C 288.60 128.33 286.47 128.34 284.34 128.37 C 284.42 128.89 284.59 129.95 284.67 130.47 C 286.76 130.51 288.84 130.40 290.94 130.35 C 290.18 133.14 287.36 133.51 284.94 133.37 C 284.40 133.08 283.31 132.51 282.77 132.23 Z" />
<path fill="#1c1817" opacity="1.00" d=" M 305.86 122.47 C 307.23 122.45 308.58 122.52 309.94 122.70 C 312.15 123.54 312.38 126.20 312.45 128.22 C 309.91 128.28 307.37 128.34 304.85 128.69 C 306.33 131.39 309.23 130.45 311.66 130.18 C 311.60 130.72 311.47 131.82 311.41 132.37 C 308.25 134.15 304.40 133.37 302.44 130.27 C 302.47 128.80 302.50 127.32 302.52 125.85 C 303.58 124.67 304.70 123.55 305.86 122.47 M 307.42 124.35 C 305.18 124.59 306.24 127.60 308.20 126.81 C 310.69 126.79 309.39 123.53 307.42 124.35 Z" />
<path fill="#1c1817" opacity="1.00" d=" M 322.38 132.94 C 322.85 129.38 323.03 125.60 324.67 122.35 C 325.25 122.61 326.42 123.12 327.00 123.37 C 328.23 122.94 329.48 122.58 330.75 122.29 C 330.58 123.10 330.25 124.73 330.09 125.54 C 328.97 125.63 327.86 125.71 326.75 125.75 C 326.11 128.00 325.66 130.29 325.22 132.59 C 324.51 132.68 323.09 132.85 322.38 132.94 Z" />
<path fill="#1c1817" opacity="1.00" d=" M 332.89 124.90 C 335.14 122.39 338.73 122.64 341.77 122.52 C 341.60 125.96 341.27 129.41 340.49 132.78 C 338.54 132.73 336.53 132.60 334.73 133.51 C 330.88 132.50 330.19 127.48 332.89 124.90 M 334.40 130.72 C 335.38 130.66 336.35 130.56 337.33 130.43 C 338.74 129.03 338.34 126.83 338.70 125.04 C 335.52 124.96 333.73 127.74 334.40 130.72 Z" />
<path fill="#1c1817" opacity="1.00" d=" M 364.82 122.55 C 365.65 122.52 367.30 122.46 368.13 122.44 C 368.71 122.77 369.88 123.44 370.47 123.77 C 371.02 125.21 371.35 126.72 371.46 128.26 C 369.01 128.29 366.55 128.34 364.11 128.47 C 364.63 131.81 368.41 130.21 370.60 130.18 C 370.53 130.72 370.40 131.78 370.34 132.31 C 367.90 133.53 365.23 133.55 362.79 132.35 C 360.34 129.16 361.25 124.45 364.82 122.55 M 364.90 126.47 C 366.28 126.36 367.66 126.22 369.04 126.03 C 367.77 124.28 365.49 124.23 364.90 126.47 Z" />
<path fill="#1c1817" opacity="1.00" d=" M 400.21 127.95 C 399.84 125.43 401.97 123.94 403.63 122.51 C 404.57 122.48 406.44 122.43 407.37 122.40 C 409.31 123.78 410.50 125.98 409.70 128.38 C 407.56 128.34 405.42 128.33 403.28 128.32 C 403.35 128.86 403.50 129.95 403.57 130.50 C 405.60 130.53 407.64 130.43 409.68 130.36 C 409.33 131.08 408.99 131.81 408.65 132.54 C 407.06 132.99 405.43 133.32 403.79 133.55 C 401.92 132.20 399.67 130.63 400.21 127.95 Z" />
<path fill="#1c1817" opacity="1.00" d=" M 412.76 122.32 C 413.84 122.67 414.92 123.02 416.01 123.39 C 417.55 122.43 419.39 122.22 421.09 122.94 C 421.91 126.13 421.00 129.43 420.48 132.60 C 419.72 132.69 418.19 132.87 417.43 132.96 C 417.93 130.29 418.48 127.62 418.62 124.91 C 417.84 125.04 416.27 125.32 415.49 125.46 C 414.75 127.75 414.56 130.16 414.17 132.52 C 413.42 132.62 411.92 132.81 411.17 132.90 C 411.60 129.36 412.37 125.87 412.76 122.32 Z" />
<path fill="#1c1817" opacity="1.00" d=" M 423.59 124.97 C 424.65 124.15 425.71 123.33 426.78 122.51 C 427.69 122.49 429.51 122.44 430.42 122.42 C 431.77 123.72 432.68 125.34 433.49 127.01 C 433.15 127.33 432.45 127.98 432.10 128.30 C 430.01 128.32 427.91 128.35 425.83 128.42 C 426.21 132.37 430.72 129.26 432.71 130.91 C 431.44 133.05 428.98 133.43 426.73 133.49 C 423.11 132.14 422.69 128.28 423.59 124.97 Z" />
<path fill="#1c1817" opacity="1.00" d=" M 446.46 123.54 C 449.27 120.99 454.27 122.78 454.05 126.89 C 455.77 123.95 458.40 121.20 462.10 122.83 C 462.30 123.49 462.68 124.81 462.88 125.47 C 461.33 125.38 459.80 125.30 458.26 125.23 C 459.86 126.75 461.43 128.29 462.83 129.99 C 461.74 131.25 460.59 132.45 459.37 133.58 C 457.25 133.39 455.11 132.75 454.32 130.53 C 455.93 130.49 457.55 130.49 459.18 130.52 C 458.20 129.11 457.09 127.77 456.07 126.41 C 453.82 128.98 450.30 128.29 447.27 128.39 C 447.37 128.90 447.57 129.93 447.67 130.44 C 449.79 130.50 451.91 130.45 454.03 130.54 C 452.80 132.89 450.35 133.56 447.88 133.52 C 443.92 131.91 442.82 126.04 446.46 123.54 Z" />
</g>
</svg>
